<svg xmlns="http://www.w3.org/2000/svg" viewBox="0 0 100 34">
    <style>
        .CSharpTitle{
            font : bold 20px serif;
            font-family : system-ui;
            fill : #ffffffb6;
        }
    </style>
    <defs>
        <linearGradient id="CSharpBackgroundGradient" gradientTransform="rotate(45)">
            <stop offset="0%" stop-color="#e959daff" />
            <stop offset="50%" stop-color="#9c168fff" />
            <stop offset="100%" stop-color="#c129dcff" />
        </linearGradient>
        <polyline id="CSharpHexagon" points="0,0 4.33,2.5 4.33,7.5 0,10 -4.33,7.5 -4.33,2.5" fill="#8f00819a"/>
    </defs>
    <rect x="0" y="0" width="100" height="34" fill="url(#CSharpBackgroundGradient)" />
    <path id="lineAC" d="M 0 0 C 20 10, 35 -5 55 5 S 85 2 100 0 Z"  fill="#cc2fbcb6" stroke-width="1" />
    <path id="lineAC" d="M 0 34 C 10 27, 25 38, 40 30 S 70 30 100 34 Z"  fill="#ae1cbcb6" stroke-width="1"/>
    <use href="#CSharpHexagon" transform="translate(5,5) rotate(25, 0, 5) scale(1)"/>
    <use href="#CSharpHexagon" transform="translate(90,5) rotate(45, 0, 5) scale(1)"/>
    <use href="#CSharpHexagon" transform="translate(65,9) rotate(35, 0, 5) scale(1)"/>
    <use href="#CSharpHexagon" transform="translate(40,17) rotate(45, 0, 5) scale(1)"/>
    <use href="#CSharpHexagon" transform="translate(24,23) rotate(65, 0, 5) scale(.75)"/>
    <use href="#CSharpHexagon" transform="translate(38,3) rotate(25, 0, 5) scale(.75)"/>
    <use href="#CSharpHexagon" transform="translate(80,15) rotate(0, 0, 5) scale(.75)"/>
    <use href="#CSharpHexagon" transform="translate(8,20) rotate(25, 0, 5) scale(.5)"/>
    <use href="#CSharpHexagon" transform="translate(88,25) rotate(15, 0, 5) scale(.5)"/>
    <use href="#CSharpHexagon" transform="translate(48,12) rotate(15, 0, 5) scale(.5)"/>
    <use href="#CSharpHexagon" transform="translate(60,20) rotate(35, 0, 5) scale(.5)"/>
    <use href="#CSharpHexagon" transform="translate(45,25) rotate(15, 0, 5) scale(.25)"/>
    <use href="#CSharpHexagon" transform="translate(15,10) rotate(50, 0, 5) scale(.25)"/>
    <use href="#CSharpHexagon" transform="translate(50,6) rotate(60, 0, 5) scale(.25)"/>
    <use href="#CSharpHexagon" transform="translate(72,23) rotate(35, 0, 5) scale(.25)"/>
    <use href="#CSharpHexagon" transform="translate(95,17) rotate(15, 0, 5) scale(.25)"/>
    <text stroke-width=".25" textLength="25" x="15" y="22" class="CSharpTitle">C#</text>
</svg>